<svg width="143" height="90" viewBox="0 0 143 90" fill="none" xmlns="http://www.w3.org/2000/svg">
<path opacity="0.4" d="M77.6725 60.9619H97.6006" stroke="black" stroke-width="1.5" stroke-linecap="round" stroke-linejoin="round"/>
<path fill-rule="evenodd" clip-rule="evenodd" d="M86.1806 15.1841V15.1841C81.9806 12.0341 76.0244 12.8841 72.8744 17.081C72.8744 17.081 57.2088 37.9498 51.7744 45.1904C46.34 52.4341 51.4806 61.4091 51.4806 61.4091C51.4806 61.4091 61.6181 63.7404 66.9744 56.5998C72.3338 49.4623 88.0744 28.4904 88.0744 28.4904C91.2244 24.2935 90.3775 18.3341 86.1806 15.1841Z" stroke="black" stroke-width="1.5" stroke-linecap="round" stroke-linejoin="round"/>
<path opacity="0.4" d="M68.8253 22.5356L84.0253 33.945" stroke="black" stroke-width="1.5" stroke-linecap="round" stroke-linejoin="round"/>
<path d="M94.5625 30.625C94.5625 30.625 116.438 43.575 116.438 52.5C116.438 61.4219 94.5625 74.375 94.5625 74.375" stroke="black" stroke-width="1.5" stroke-linecap="round" stroke-linejoin="round"/>
<path d="M48.4375 66.375C48.4375 66.375 26.5625 53.425 26.5625 44.5C26.5625 35.5781 48.4375 22.625 48.4375 22.625" stroke="black" stroke-width="1.5" stroke-linecap="round" stroke-linejoin="round"/>
</svg>
